<?xml version="1.0" standalone="no"?>
<!DOCTYPE svg PUBLIC "-//W3C//DTD SVG 20010904//EN"
 "http://www.w3.org/TR/2001/REC-SVG-20010904/DTD/svg10.dtd">
<svg version="1.0" xmlns="http://www.w3.org/2000/svg"
 width="700.000000pt" height="700.000000pt" viewBox="0 0 700.000000 700.000000"
 preserveAspectRatio="xMidYMid meet">
<metadata>
Created by potrace 1.14, written by Peter Selinger 2001-2017
</metadata>
<g transform="translate(0.000000,700.000000) scale(0.100000,-0.100000)"
fill="#000000" stroke="none">
<path d="M4410 6938 c-1 -79 -1 -1635 0 -1703 l0 -50 954 0 c525 0 956 3 958
5 30 38 277 367 288 383 8 11 99 133 203 271 l187 249 -23 31 c-13 17 -110
146 -215 286 -105 140 -195 260 -199 265 -4 6 -28 37 -53 70 -25 33 -47 62
-50 65 -3 3 -36 47 -74 98 l-68 92 -954 0 -954 0 0 -62z"/>
<path d="M0 3628 l0 -778 1425 0 1425 0 0 -1425 0 -1425 779 0 779 0 1 2205 1
2205 -2205 -2 -2205 -2 0 -778z"/>
</g>
</svg>
